<?xml version="1.0" ?><!DOCTYPE svg  PUBLIC '-//W3C//DTD SVG 1.0//EN'  'http://www.w3.org/TR/2001/REC-SVG-20010904/DTD/svg10.dtd'><svg height="54px" style="shape-rendering:geometricPrecision; text-rendering:geometricPrecision; image-rendering:optimizeQuality; fill-rule:evenodd; clip-rule:evenodd" version="1.0" viewBox="0 0 13839 11676" width="64px" xml:space="preserve" xmlns="http://www.w3.org/2000/svg" xmlns:xlink="http://www.w3.org/1999/xlink"><defs><style type="text/css">
   <![CDATA[
    .fil0 {fill:#059ed1;fill-rule:nonzero}
   ]]>
  </style></defs><g id="Layer_x0020_1"><path class="fil0" d="M216 0l6 0 13400 0c119,0 216,97 216,216l0 6 0 1718 0 6 0 6 0 9508c0,119 -97,216 -216,216l-6 0 -13400 0c-119,0 -216,-97 -216,-216l0 -6 0 -9503 0 -6 0 -6 0 -1724c0,-119 97,-216 216,-216zm9514 10811c-119,0 -216,-97 -216,-216 0,-119 97,-216 216,-216l2145 0c119,0 216,97 216,216 0,119 -97,216 -216,216l-2145 0zm865 -1081c-119,0 -216,-97 -216,-216 0,-119 97,-216 216,-216l2145 0c119,0 216,97 216,216 0,119 -97,216 -216,216l-2145 0zm-9514 -6703c-119,0 -216,-97 -216,-216 0,-119 97,-216 216,-216l2145 0c119,0 216,97 216,216 0,119 -97,216 -216,216l-2145 0zm865 1081c-119,0 -216,-97 -216,-216 0,-119 97,-216 216,-216l2145 0c119,0 216,97 216,216 0,119 -97,216 -216,216l-2145 0zm4987 -433c457,0 889,115 1268,316 350,186 655,447 892,762l85 -10c79,-8 156,-13 229,-13 601,0 1145,244 1538,637l13 14c386,393 625,931 625,1525 0,580 -228,1109 -600,1499 -364,383 -867,634 -1428,671 -16,4 -33,6 -50,6l-6 0 -92 0 -20 0 -2431 0 -22 0 -2889 0c-493,0 -940,-200 -1263,-523l-13 -14c-315,-322 -511,-763 -511,-1249 0,-493 200,-940 523,-1263 323,-323 770,-523 1263,-523 91,0 182,7 271,20l50 8c168,-513 484,-957 898,-1283 460,-362 1040,-578 1670,-578zm1065 696c-316,-168 -679,-264 -1065,-264 -530,0 -1018,182 -1404,485 -392,309 -680,743 -802,1241l-6 26c-35,114 -157,177 -270,142 -64,-20 -131,-35 -200,-46 -66,-10 -136,-15 -206,-15 -374,0 -713,152 -957,397 -245,245 -397,584 -397,957 0,368 147,703 385,946l12 11c245,245 584,397 957,397l2889 0 22 0 2431 0 20 0 70 0 17 -2c462,-22 877,-226 1176,-540 297,-312 480,-736 480,-1202 0,-476 -191,-908 -500,-1223l-11 -10c-315,-315 -751,-511 -1232,-511 -65,0 -127,3 -184,9l-1 0c-57,6 -116,15 -174,28m-231 -89c-208,-309 -490,-564 -819,-739m-4754 -3507l432 0 0 433 -432 0 0 -433zm-1081 0l432 0 0 433 -432 0 0 -433zm-1081 0l432 0 0 433 -432 0 0 -433zm12325 1298l-12973 0 0 9081 12973 0 0 -9081zm-12973 -433l12973 0 0 -1297 -12973 0 0 1297z"/></g></svg>
