<?xml version="1.0" ?><!DOCTYPE svg  PUBLIC '-//W3C//DTD SVG 1.0//EN'  'http://www.w3.org/TR/2001/REC-SVG-20010904/DTD/svg10.dtd'><svg height="54px" style="shape-rendering:geometricPrecision; text-rendering:geometricPrecision; image-rendering:optimizeQuality; fill-rule:evenodd; clip-rule:evenodd" version="1.0" viewBox="0 0 35313 29795" width="64px" xml:space="preserve" xmlns="http://www.w3.org/2000/svg" xmlns:xlink="http://www.w3.org/1999/xlink"><defs><style type="text/css">
   <![CDATA[
    .fil0 {fill:#059ed1;fill-rule:nonzero}
   ]]>
  </style></defs><g id="Layer_x0020_1"><path class="fil0" d="M552 0l14 0 34195 0c304,0 552,248 552,552l0 14 0 4385 0 14 0 14 0 24263c0,304 -248,552 -552,552l-14 0 -34195 0c-304,0 -552,-248 -552,-552l0 -14 0 -24249 0 -14 0 -14 0 -4399c0,-304 248,-552 552,-552zm17105 15171c527,0 1006,214 1353,562l3 3c347,347 562,826 562,1353 0,527 -215,1007 -563,1354l1 1c-346,346 -826,562 -1355,562 -529,0 -1009,-216 -1355,-562 -346,-346 -562,-826 -562,-1355 0,-530 216,-1009 562,-1355l38 -35c344,-326 809,-527 1318,-527zm575 1340c-145,-145 -349,-236 -575,-236 -214,0 -409,81 -552,214l-23 25c-147,147 -239,351 -239,575 0,224 92,428 239,575 147,147 351,239 575,239 224,0 428,-92 575,-239l1 1 1 -1c145,-145 236,-349 236,-575 0,-225 -91,-429 -236,-575l-3 -3zm-575 -3638c1161,0 2216,472 2978,1234l3 3c762,762 1234,1817 1234,2978 0,1163 -472,2218 -1234,2980 -762,762 -1818,1235 -2981,1235 -1160,0 -2214,-472 -2978,-1235l-3 -3c-763,-764 -1235,-1818 -1235,-2978 0,-1163 472,-2218 1235,-2981 762,-762 1817,-1234 2980,-1234zm2201 2014c-563,-562 -1342,-910 -2201,-910 -859,0 -1637,349 -2199,911 -563,563 -912,1341 -912,2200 0,860 348,1639 909,2199l3 3c560,561 1339,909 2199,909 859,0 1637,-349 2200,-912 562,-562 911,-1341 911,-2199 0,-860 -348,-1638 -910,-2201zm-12326 1845c3313,-3835 6674,-5714 10077,-5694 3404,20 6799,1941 10179,5700 190,210 185,529 0,736l-5 5 -8 8c-3325,3696 -6688,5615 -10087,5650 -3406,35 -6796,-1821 -10167,-5670 -188,-214 -179,-533 11,-737zm10073 -4595c-2966,-18 -5947,1622 -8936,4967 3037,3350 6042,4966 9010,4936 2964,-31 5950,-1705 8953,-4933 -3050,-3278 -6061,-4952 -9027,-4970zm7225 15451c-304,0 -552,-248 -552,-552 0,-304 248,-552 552,-552l5474 0c304,0 552,248 552,552 0,304 -248,552 -552,552l-5474 0zm2207 -2759c-304,0 -552,-248 -552,-552 0,-304 248,-552 552,-552l5474 0c304,0 552,248 552,552 0,304 -248,552 -552,552l-5474 0zm-24277 -17104c-304,0 -552,-248 -552,-552 0,-304 248,-552 552,-552l5474 0c304,0 552,248 552,552 0,304 -248,552 -552,552l-5474 0zm2207 2759c-304,0 -552,-248 -552,-552 0,-304 248,-552 552,-552l5474 0c304,0 552,248 552,552 0,304 -248,552 -552,552l-5474 0zm3311 -8277l1103 0 0 1104 -1103 0 0 -1104zm-2759 0l1103 0 0 1104 -1103 0 0 -1104zm-2759 0l1103 0 0 1104 -1103 0 0 -1104zm31450 3311l-33105 0 0 23174 33105 0 0 -23174zm-33105 -1104l33105 0 0 -3310 -33105 0 0 3310z"/></g></svg>
