<?xml version="1.0" standalone="no"?>
<!DOCTYPE svg PUBLIC "-//W3C//DTD SVG 20010904//EN"
 "http://www.w3.org/TR/2001/REC-SVG-20010904/DTD/svg10.dtd">
<svg version="1.0" xmlns="http://www.w3.org/2000/svg"
 width="751.000000pt" height="751.000000pt" viewBox="0 0 751.000000 751.000000"
 preserveAspectRatio="xMidYMid meet">
<metadata>
Created by potrace 1.11, written by Peter Selinger 2001-2013
</metadata>
<g transform="translate(0.000000,751.000000) scale(0.100000,-0.100000)"
fill="#000000" stroke="none">
<path d="M422 6052 l-412 -206 0 -2088 0 -2088 415 -207 416 -208 417 210 417
210 0 2078 c1 1143 -2 2082 -5 2086 -4 7 -826 422 -832 420 -2 0 -189 -93
-416 -207z"/>
<path d="M3749 5635 l-1246 -624 1 -418 1 -418 418 -209 417 -210 412 207
c226 114 413 205 415 203 2 -1 3 -563 4 -1247 l1 -1245 417 -208 416 -209 418
209 417 209 0 1247 c0 687 2 1248 5 1248 3 0 190 -93 417 -206 l411 -206 414
207 c227 113 414 209 414 213 4 23 3 825 -1 831 -6 10 -2488 1251 -2498 1250
-4 0 -568 -281 -1253 -624z"/>
</g>
</svg>
